<svg class="attachment-full size-full" xmlns="http://www.w3.org/2000/svg" width="208" height="97" xml:space="preserve" viewBox="0 0 208.5 97.1"><path fill="#EC1C24" d="M2.9 0 0 2.6v13l2.9 2.6H11l.7.6V26l-.7.7H6.5l-.7-.6v-3.4H0v6.6l2.9 2.6h11.9l2.9-2.6V15.7l-2.9-2.6H6.6l-.7-.6V5.8l.7-.6H11l.7.6v3.3h5.9V2.6L14.8 0H2.9zM35.2 41v-6.6l-2.9-2.6H20.5l-2.9 2.6v13l2.9 2.6h8.2l.7.6v7.2l-.7.6h-4.5l-.7-.6v-3.4h-5.9V61l2.9 2.6h11.9l2.9-2.6V47.5l-2.9-2.6h-8.2l-.7-.6v-6.6l.7-.6h4.5l.7.6V41h5.8zM52.8 72.9v-6.6L50 63.7H38.1l-2.9 2.6v13l2.9 2.6h8.2l.7.6v7.2l-.7.6h-4.5l-.7-.6v-3.4h-5.8V93l2.9 2.6H50l2.9-2.6V79.4L50 76.8h-8.2l-.7-.6v-6.6l.7-.6h4.5l.7.6V73l5.8-.1zM60 93.6l.1.2 1.8 3.2h117.3v-.2l-1.8-3.3H60zM170.3 28.1h-11L145.2 2.6h11l14.1 25.5z"/><path fill="none" stroke="#EC1C24" stroke-miterlimit="10" d="M170.3 28.1h-11L145.2 2.6h11l14.1 25.5z"/><path fill="#EC1C24" d="M187.9 59.8h-11l-15.3-27.6h11l15.3 27.6zM179.2 64l18.3 33h11l-18.3-33h-11z"/><path fill="#FFF" d="M23.4 2.6h3.8v20.6h-3.8zM30.4 23.2V2.6h4.1l4.9 12.7V2.6h3.8v20.6h-4.1l-4.9-12.7v12.7h-3.8zM46.4 21.6V4.3l1.9-1.7h7.9L58 4.3v4.3h-3.8V6.3l-.4-.4h-3.1l-.4.4v13.2l.4.4h3.1l.4-.4v-4.1h-1.9V12H58v9.6l-1.9 1.7h-7.9l-1.8-1.7zM71.6 23.2H61.1V2.6H65v17.3h6.6v3.3zM74.3 23.2V2.6h10.9v3.3h-7.1V11h5.3v3.3h-5.3v5.5h7.1v3.3H74.3zM99.7 5.9h-4.1v17.3h-3.8V5.9h-4.1V2.6h12v3.3zM113.8 4.3v17.3l-1.9 1.7h-7.6l-1.9-1.7V4.3l1.9-1.7h7.6l1.9 1.7zM109.6 6h-2.9l-.4.4v13.2l.4.4h2.9l.4-.4V6.4l-.4-.4zM117 23.2V2.6h4.1l4.9 12.7V2.6h3.8v20.6h-4.1l-4.9-12.7v12.7H117zM53.2 37.8h-4.1v17.3h-3.8V37.8h-4.1v-3.3h12v3.3zM55.9 55.1V34.4h10.9v3.3h-7.1v5.1H65v3.3h-5.3v5.5h7.1v3.3l-10.9.2zM79.2 50.6h-2l-3.7-9.5V55h-3.8V34.4h4.7l3.7 9.7 3.7-9.7h4.7V55h-3.8V41.1l-3.5 9.5zM99.4 50.6h-2l-3.7-9.5V55h-3.8V34.4h4.7l3.7 9.7 3.7-9.7h4.7V55H103V41.1l-3.6 9.5zM110 34.4h3.8V55H110zM117 55.1V34.4h4.1l4.9 12.7V34.4h3.8V55h-4.1l-4.9-12.7V55H117zM133 53.4V36.1l1.9-1.7h7.9l1.9 1.7v4.3h-3.8v-2.3l-.4-.4h-3.1l-.4.4v13.2l.4.4h3.1l.4-.4v-4.1H139v-3.4h5.6v9.6l-1.9 1.7h-7.9l-1.8-1.7zM60 87.8V66.2h12v3.5h-7.8V75H70v3.5h-5.8v5.8H72v3.5H60zM75.6 87.8V66.2h10.8l2.1 1.8v9.7l-2.1 1.8 2.1 8.4h-4.1l-2-8.4h-2.5v8.4l-4.3-.1zm8.3-11.9.5-.4v-5.4l-.5-.4h-4v6.2h4zM101.6 87.8h-5.4l-4.7-21.6h4.2l3.2 16.1 3.2-16.1h4.2l-4.7 21.6zM109.6 66.2h4.2v21.6h-4.2zM117.6 86V67.9l2-1.8h8.5l2 1.8v4.5h-4.2v-2.3l-.5-.4h-3.2l-.5.4v13.7l.5.4h3.2l.5-.4v-2.3h4.2V86l-2 1.8h-8.5l-2-1.8zM133.8 87.8V66.2h12v3.5H138V75h5.8v3.5H138v5.8h7.8v3.5h-12zM157.7 72.4v-2.3l-.5-.4H154l-.5.4v4.5l.5.4h5.9l2.1 1.8V86l-2.1 1.8h-8.5l-2.1-1.8v-4.5h4.2v2.3l.5.4h3.2l.5-.4V79l-.5-.4h-5.9l-2.1-1.8v-8.9l2.1-1.8h8.5l2.1 1.8v4.5h-4.2z"/></svg>